<?xml version="1.0" encoding="UTF-8" standalone="no"?>
<!-- Created with Inkscape (http://www.inkscape.org/) -->

<svg
   version="1.1"
   id="svg2"
   width="200"
   height="100"
   viewBox="0 0 200 100"
   sodipodi:docname="go_back.svg"
   inkscape:version="1.2.2 (732a01da63, 2022-12-09)"
   xmlns:inkscape="http://www.inkscape.org/namespaces/inkscape"
   xmlns:sodipodi="http://sodipodi.sourceforge.net/DTD/sodipodi-0.dtd"
   xmlns="http://www.w3.org/2000/svg"
   xmlns:svg="http://www.w3.org/2000/svg">
  <defs
     id="defs6">
    <rect
       x="37.221493"
       y="68.414154"
       width="23.591087"
       height="40.366974"
       id="rect381" />
  </defs>
  <sodipodi:namedview
     id="namedview4"
     pagecolor="#ffffff"
     bordercolor="#000000"
     borderopacity="0.25"
     inkscape:showpageshadow="2"
     inkscape:pageopacity="0.0"
     inkscape:pagecheckerboard="0"
     inkscape:deskcolor="#d1d1d1"
     showgrid="false"
     inkscape:zoom="3.815"
     inkscape:cx="14.678899"
     inkscape:cy="54.652687"
     inkscape:window-width="1920"
     inkscape:window-height="924"
     inkscape:window-x="-11"
     inkscape:window-y="-11"
     inkscape:window-maximized="1"
     inkscape:current-layer="g8" />
  <g
     inkscape:groupmode="layer"
     inkscape:label="Image"
     id="g8">
    <rect
       style="fill:#000000"
       id="rect222"
       width="129.22673"
       height="36.435123"
       x="54.521626"
       y="30.930538" />
    <path
       style="fill:#000000"
       id="path287"
       d="m 52.048194,4.7755146 c -1.111222,2.6812487 -2.620635,5.1668766 -4.014165,7.7058054 -1.451188,2.541892 -2.968458,5.045033 -4.501187,7.538236 -0.793189,1.425713 -1.699914,2.782955 -2.52658,4.18855 -1.068155,1.935464 -2.156633,3.86097 -3.315365,5.744425 -1.377258,2.317622 -2.417362,4.809373 -3.688895,7.183575 -1.204668,2.515316 -2.731004,4.852945 -4.129142,7.259906 -0.995659,1.47085 -1.973689,2.968504 -3.12928,4.320969 -0.567573,0.600474 -1.188209,1.145128 -1.760871,1.742913 0,0 12.673093,7.752487 12.673093,7.752487 v 0 c 0.62382,-0.615959 1.2894,-1.195529 1.792524,-1.920355 1.073453,-1.489291 1.967968,-3.094834 2.904823,-4.671571 1.454136,-2.405509 2.838078,-4.852616 4.163389,-7.331486 1.20216,-2.374097 2.391876,-4.757595 3.676647,-7.087369 1.125055,-1.908753 2.391122,-3.720571 3.583862,-5.585942 0.865909,-1.395661 1.575719,-2.877369 2.323595,-4.338237 1.40134,-2.577785 2.828443,-5.141757 4.241114,-7.713164 1.426816,-2.507489 2.870792,-5.022992 4.602281,-7.335626 0,0 -12.895843,-7.4531164 -12.895843,-7.4531164 z" />
    <path
       style="fill:#000000"
       id="path289"
       d="m 22.167552,44.527103 c 0.148373,0.152497 0.304473,0.29784 0.445118,0.457492 0.758576,0.861093 1.412566,1.785941 2.204774,2.62385 1.439289,1.522319 1.63788,1.622639 3.300598,3.082705 3.730359,3.000951 7.641078,5.774438 11.599497,8.464976 2.995036,1.949668 5.979213,3.913278 8.86523,6.021804 2.147089,1.530129 4.114756,3.288165 6.190727,4.908707 1.238378,0.882549 2.45805,1.787771 3.60128,2.791522 1.497269,1.307216 3.081396,2.507024 4.557273,3.8393 1.080608,0.960568 1.8492,2.15327 2.513938,3.420829 0.4705,1.078813 0.842489,2.19893 1.202068,3.318764 0.248471,1.123937 0.686817,2.191366 1.105161,3.260131 0.515298,1.181493 1.173852,2.289918 1.849879,3.384404 0.0059,0.0081 0.507811,0.697593 0.513958,0.703987 0.123608,0.128588 0.256528,0.253298 0.410683,0.343021 12.220296,7.112639 8.722658,5.810813 14.519305,8.076665 0.684266,0.241293 1.382508,0.439148 2.078536,0.642756 0,0 -11.677416,-9.034895 -11.677416,-9.034895 v 0 c -0.66754,-0.220806 -1.336159,-0.441095 -1.977707,-0.731743 -0.231711,-0.100505 -0.466181,-0.194877 -0.695134,-0.301517 -0.197043,-0.09178 -0.769916,-0.403305 -0.582328,-0.293488 4.049691,2.370752 8.115925,4.71314 12.169693,7.076914 0.132613,0.07733 -0.26725,-0.151699 -0.405978,-0.217428 -0.116629,-0.05526 -0.249616,-0.07651 -0.358991,-0.145011 -0.118657,-0.07432 -0.210273,-0.184919 -0.315409,-0.277378 -0.88268,-0.850731 -1.517547,-1.989615 -2.087133,-3.062753 -0.479034,-0.972183 -0.794853,-2.016911 -1.156085,-3.035835 -0.08808,-0.397912 -0.151276,-0.743678 -0.2898,-1.12861 -0.54302,-1.508948 0.10654,0.566601 -0.431713,-1.111347 -0.07168,-0.223457 -0.121314,-0.453864 -0.198976,-0.675313 -0.07652,-0.218199 -0.175315,-0.427938 -0.262972,-0.641907 -0.541304,-1.485426 -1.328243,-2.853477 -2.406684,-4.018045 -1.394861,-1.369027 -2.9365,-2.562226 -4.409421,-3.843591 -1.203755,-1.034222 -2.353036,-2.142207 -3.709298,-2.983962 -2.288164,-1.500885 -4.264476,-3.408145 -6.481114,-5.008969 -0.91494,-0.665966 -1.810166,-1.359093 -2.733721,-2.01306 -2.062919,-1.460751 -4.230533,-2.773006 -6.345621,-4.154754 -4.013257,-2.64105 -7.969474,-5.387707 -11.760683,-8.339081 -0.563164,-0.484892 -1.142458,-0.951658 -1.689493,-1.454677 -1.312803,-1.207171 -2.488616,-2.585075 -3.381079,-4.132647 0,0 -13.770962,-5.811816 -13.770962,-5.811816 z" />
  </g>
</svg>
