<?xml version="1.0" encoding="UTF-8" standalone="no"?>
<!-- Created with Inkscape (http://www.inkscape.org/) -->

<svg
   version="1.1"
   id="svg2"
   width="200"
   height="100"
   viewBox="0 0 200 100"
   sodipodi:docname="new.svg"
   inkscape:version="1.2.2 (732a01da63, 2022-12-09)"
   xmlns:inkscape="http://www.inkscape.org/namespaces/inkscape"
   xmlns:sodipodi="http://sodipodi.sourceforge.net/DTD/sodipodi-0.dtd"
   xmlns="http://www.w3.org/2000/svg"
   xmlns:svg="http://www.w3.org/2000/svg">
  <defs
     id="defs6">
    <rect
       x="37.221493"
       y="68.414154"
       width="23.591087"
       height="40.366974"
       id="rect381" />
  </defs>
  <sodipodi:namedview
     id="namedview4"
     pagecolor="#ffffff"
     bordercolor="#000000"
     borderopacity="0.25"
     inkscape:showpageshadow="2"
     inkscape:pageopacity="0.0"
     inkscape:pagecheckerboard="0"
     inkscape:deskcolor="#d1d1d1"
     showgrid="false"
     inkscape:zoom="3.815"
     inkscape:cx="14.678899"
     inkscape:cy="54.12844"
     inkscape:window-width="1920"
     inkscape:window-height="924"
     inkscape:window-x="-11"
     inkscape:window-y="-11"
     inkscape:window-maximized="1"
     inkscape:current-layer="g8" />
  <g
     inkscape:groupmode="layer"
     inkscape:label="Image"
     id="g8">
    <rect
       style="fill:#000000"
       id="rect220"
       width="79.423332"
       height="83.093056"
       x="56.094364"
       y="11.009174" />
    <rect
       style="fill:#ffffff"
       id="rect326"
       width="49.27916"
       height="51.114025"
       x="70.249016"
       y="27.785059" />
    <path
       style="fill:#000000"
       id="path454"
       d="m 152.22612,50.60147 c 0.21208,2.750664 0.24332,5.515375 0.31715,8.273373 0.0622,2.965628 0.21668,5.93205 0.49217,8.885805 0.42033,2.580651 0.66904,5.18101 0.79347,7.79144 0.10174,1.911121 0.0572,3.825517 0.045,5.73816 -0.0132,1.168825 -0.0652,2.336632 -0.0763,3.505485 0.0103,0.50082 0.001,1.001691 -1.5e-4,1.502549 0,0 13.24497,6.749925 13.24497,6.749925 v 0 c -7.8e-4,-0.499719 -0.009,-0.999488 0.003,-1.499137 -0.007,-1.195838 -0.0509,-2.390865 -0.067,-3.586573 -0.0239,-1.96805 -0.10395,-3.934341 -0.19094,-5.900508 -0.1739,-2.624342 -0.4259,-5.241738 -0.75533,-7.851456 -0.3522,-2.960483 -0.8235,-5.918513 -0.81947,-8.908385 -0.0219,-2.651326 0.0416,-5.311541 0.25444,-7.954011 0,0 -13.24108,-6.746667 -13.24108,-6.746667 z" />
    <path
       style="fill:#000000"
       id="path456"
       d="m 144.97469,73.72182 c 4.37317,0.210548 8.73607,0.599438 13.1045,0.889523 3.51463,0.167117 7.02958,0.329408 10.54625,0.447142 1.52857,0.08188 3.05824,0.06262 4.58795,0.04654 1.66095,0.0031 3.32374,0.123821 4.98114,0.236599 2.25751,0.325257 4.49619,0.766158 6.74938,1.119119 1.15547,0.223483 2.32252,0.262138 3.49417,0.27568 0.79212,0.01661 1.58417,-0.003 2.37623,-0.0069 0.13278,4.31e-4 0.26557,8.61e-4 0.39836,0.0013 0,0 -12.06958,-8.763171 -12.06958,-8.763171 v 0 c -0.13073,0.0013 -0.26145,0.0025 -0.39218,0.0038 -0.77822,0.0016 -1.55653,-0.0044 -2.33474,-0.01063 -1.06905,-0.03619 -2.13342,-0.155482 -3.19495,-0.283107 -2.27777,-0.315709 -4.53958,-0.733134 -6.81954,-1.029782 -1.69911,-0.120423 -3.40107,-0.200483 -5.10499,-0.197009 -1.47759,-0.0089 -2.95486,-0.01838 -4.43155,0.04786 -3.32718,0.06186 -6.65726,0.07036 -9.98084,-0.124235 -4.6034,-0.247224 -9.21807,-0.554042 -13.74001,-1.507202 0,0 11.8304,8.854465 11.8304,8.854465 z" />
  </g>
</svg>
